# Blender v2.71 (sub 0) OBJ File: ''
# www.blender.org
o Cube
v -0.254049 -0.055347 0.243836
v -0.110779 0.516323 0.102267
v 0.275739 0.471386 0.162322
v -0.075327 0.407130 0.328740
v -0.486262 0.448768 -0.166319
v -0.217142 0.122691 -0.572469
v -0.300149 -0.055347 -0.298577
v 0.309043 -0.055347 -0.266864
v 0.270375 -0.055347 0.295524
v 0.148113 0.559760 0.126741
v 0.161600 0.646659 -0.198946
v -0.170109 0.559786 -0.188912
v 0.401054 0.122691 0.243926
v 0.500831 0.122691 -0.182432
v 0.353027 0.535641 -0.147250
v -0.128737 0.122691 0.467710
v 0.099934 0.122691 0.541384
v 0.064210 0.407130 0.388469
v -0.615941 0.122691 -0.243247
v -0.489880 0.122691 0.144806
v -0.349663 0.427949 0.090416
v -0.176961 0.450592 -0.460205
v 0.176462 0.494029 -0.453314
v 0.237368 0.122691 -0.537100
v 0.438281 -0.010838 0.262482
v -0.241100 -0.010838 -0.515860
v 0.273095 0.525238 -0.307545
v -0.161374 -0.010838 0.422202
v 0.148423 0.423194 0.289865
v -0.548758 -0.010838 -0.261878
v -0.182348 0.412335 0.197227
v -0.378506 0.449224 -0.320927
v 0.251073 0.578807 0.118282
v -0.158364 0.552822 -0.348114
v -0.058794 0.487628 0.213097
v -0.354150 0.550542 -0.138301
v 0.491925 -0.010838 -0.207033
v 0.275254 -0.010838 -0.480645
v 0.383873 0.122691 -0.386462
v 0.192560 -0.010838 0.491960
v 0.224793 0.122691 0.416106
v -0.439982 -0.010838 0.173093
v -0.283780 0.122691 0.299234
v -0.463457 0.122691 -0.445877
v 0.270308 0.680851 -0.146076
v 0.162261 0.628836 -0.358933
v 0.117339 0.498487 0.258621
v -0.228893 0.513652 0.069714
v -0.326921 -0.055347 -0.014164
v 0.315246 -0.055347 0.019955
v 0.021810 -0.055347 -0.313516
v 0.004032 -0.055347 0.302743
v 0.012337 0.507760 0.137976
v 0.017821 0.562994 -0.236384
v 0.161283 0.604599 -0.021129
v -0.168734 0.528586 -0.024739
v 0.299828 0.298884 0.217868
v 0.424840 0.314948 -0.170143
v 0.526979 0.122691 0.039521
v 0.369495 0.519577 0.013923
v -0.114075 0.282820 0.422508
v 0.040987 0.282820 0.491114
v -0.006812 0.122691 0.573879
v -0.002005 0.407130 0.415604
v -0.571756 0.293230 -0.219217
v -0.445766 0.288025 0.127678
v -0.637210 0.122691 -0.025910
v -0.482543 0.443563 -0.020998
v -0.203891 0.293686 -0.532539
v 0.202174 0.304545 -0.505048
v 0.035614 0.462364 -0.524289
v 0.043100 0.122691 -0.607913
v 0.395218 0.023781 -0.367796
v 0.294575 0.023781 0.400151
v -0.296431 0.023781 0.302418
v -0.431114 0.023781 -0.420018
v 0.236841 0.629264 -0.272301
v 0.175475 0.507075 0.221060
v -0.149375 0.478118 0.155414
v -0.303416 0.527912 -0.268214
v 0.521897 -0.010838 0.035900
v 0.043512 -0.010838 -0.546938
v 0.323003 0.312347 -0.358861
v 0.008811 -0.010838 0.518834
v 0.126442 0.286836 0.375193
v -0.571859 -0.010838 -0.023107
v -0.253785 0.284121 0.266888
v -0.433727 0.293344 -0.405493
v 0.286551 0.650257 -0.006368
v 0.033156 0.568338 -0.423125
v 0.016896 0.485488 0.279798
v -0.338979 0.536236 -0.019611
v 0.000987 -0.055347 0.000372
v 0.005563 0.518683 -0.028029
v 0.439757 0.310932 0.031851
v -0.018523 0.282820 0.521572
v -0.586321 0.291929 -0.024548
v 0.035495 0.296629 -0.574382
vt 0.235217 0.306381
vt 0.519162 0.293794
vt 0.521799 0.031961
vt 0.298319 0.082971
vt 0.525937 -0.155158
vt 0.378569 0.280330
vt 0.261619 0.324367
vt 0.137314 0.280330
vt 0.137314 0.144229
vt 0.023117 0.314125
vt 0.528990 0.174638
vt 0.523124 0.318387
vt 0.372195 0.315538
vt 0.422380 0.205560
vt 0.224775 0.311098
vt 0.320102 0.233749
vt 0.388959 0.159538
vt 0.467396 0.109589
vt 0.532938 0.051830
vt 0.329649 0.674315
vt 0.490727 0.689640
vt 0.506251 0.955050
vt 0.377747 0.893747
vt 0.523822 1.121282
vt 0.735718 1.030394
vt 0.670256 0.939147
vt 0.646831 0.832444
vt 0.757078 0.893747
vt 0.627797 0.658989
vt 0.233641 0.812010
vt 0.152445 0.653880
vt 0.066663 0.653880
vt 0.516571 -0.065768
vt 0.453079 0.812010
vt 0.467396 0.914409
vt 0.388959 0.902311
vt 0.347522 0.818631
vt 0.287201 0.655536
vt 0.708134 0.667122
vt 0.539564 0.665467
vt 0.536490 0.858356
vt 0.662327 0.864976
vt 0.535289 0.976241
vt 0.638066 0.994439
vt 0.750562 0.965652
vt 0.796207 0.865557
vt 0.869435 0.667267
vt 0.341752 0.667702
vt 0.549044 0.671446
vt 0.555629 0.450187
vt 0.555985 0.280330
vt 0.309531 0.280330
vt 0.330277 0.450187
vt 0.144992 0.324367
vt 0.116986 0.450187
vt 0.142730 0.667267
vt 0.258399 0.552663
vt 0.309531 0.740814
vt 0.555985 0.767726
vt 0.537193 0.565598
vt 0.043121 0.520884
vt 0.144992 0.657822
vt 0.756657 0.710321
vt 0.860538 0.612601
vt 0.944279 0.473392
vt 0.785916 0.525201
vt 0.970233 0.263029
vt 0.791288 0.276836
vt 0.752432 0.038213
vt 0.897828 0.066825
vt 0.773388 -0.052387
vt 0.685051 -0.131887
vt 0.646562 0.184367
vt 0.735718 0.191692
vt 0.766440 0.299631
vt 0.657966 0.312412
vt 0.619914 0.070168
vt 0.670256 0.102693
vt 0.752375 0.420607
vt 0.723395 0.529909
vt 0.658814 0.604927
vt 0.658241 0.466389
vt 0.547018 0.660512
vt 0.533739 0.498808
vt 0.371005 0.457700
vt 0.381175 0.595558
vt 0.255570 0.526371
vt 0.211638 0.413875
vt 0.307085 0.450187
vt 0.291016 0.280330
vt 0.487220 0.280330
vt 0.484085 0.450187
vt 0.865591 0.450187
vt 0.777937 0.674315
vt 0.157989 0.450187
vt 0.171804 0.324367
vt 0.697583 0.280330
vt 0.836793 0.324367
vt 0.852956 0.450187
vt 0.676280 0.450187
vt 0.829055 0.691441
vt 0.665639 0.694749
vt 0.645815 0.975484
vt 0.784620 0.962251
vt 0.754101 1.094578
vt 0.644798 1.160200
vt 0.525937 0.280330
vt 0.512408 0.450187
vt 0.502268 0.653880
vt 0.419526 0.653880
vt 0.113303 0.450187
vt 0.406830 0.450187
vt 0.272574 0.450187
vt 0.604843 0.450187
vt 0.685051 0.280330
vt 0.773388 0.324367
vt 0.193416 0.658989
vt 0.093037 0.653880
vt 0.553799 0.653880
vt 0.267304 0.832444
vt 0.573908 0.812010
vt 0.516571 0.812010
vt 0.745075 0.280330
vt 0.538316 0.280330
vt 0.540743 0.450187
vt 0.728942 0.450187
vt 0.904405 0.450187
vt 0.882013 0.324367
vt 0.094106 0.450187
vt 0.298547 0.655536
vt 0.407747 0.660501
vt 0.368420 0.280330
vt 0.132305 0.660501
vt 0.360406 0.818631
vt 0.215524 0.838493
vt 0.320102 0.947513
vt 0.224775 0.976241
vt 0.100459 0.858356
vt 0.010594 0.665467
vt 0.381175 0.997339
vt 0.547018 1.017077
vt 0.549146 0.882271
vt 0.190547 0.865557
vt 0.255570 0.965652
vt 0.910845 0.922551
vt 0.829118 1.094034
vt 0.955644 0.681516
vt 0.671111 0.922551
vt 0.693376 0.681516
vt 0.658814 1.094034
vt 0.983398 0.450187
vt 0.756657 0.280330
vt 0.723851 0.450187
vt 0.378569 -0.071481
vt 0.298319 0.223711
vt 0.415883 1.030394
vt 0.158423 0.812010
vt 0.453079 0.009450
vt 0.712962 0.450187
vt 0.259192 0.450187
vt 0.049506 0.450187
vt 0.181920 0.812010
vt 0.619914 0.928222
vt 0.573908 -0.042271
vt 0.392916 0.450187
vt 0.365071 0.867297
vt 0.934512 0.280330
vn -0.100600 -0.994800 0.010900
vn 0.000000 -1.000000 0.000000
vn -0.012000 -0.993900 0.109600
vn -0.183900 -0.961600 0.203600
vn -0.115800 -0.721700 0.682400
vn -0.493100 -0.591700 0.637800
vn -0.666200 0.016100 0.745500
vn -0.591600 -0.593400 0.545800
vn -0.649300 -0.740700 0.172600
vn -0.176600 0.974100 0.141000
vn -0.215600 0.966700 0.137700
vn 0.048900 0.989900 0.132800
vn -0.026800 0.982400 0.184900
vn -0.314800 0.880600 0.354100
vn -0.266400 0.813900 0.516300
vn -0.465300 0.620100 0.631600
vn -0.345100 0.836300 0.425900
vn -0.177900 0.899700 0.398600
vn 0.673600 0.377400 0.635400
vn 0.883300 0.374000 0.282600
vn 0.858000 0.429100 0.282300
vn 0.669600 0.371300 0.643100
vn 0.347700 0.885100 0.309200
vn 0.408800 0.709700 0.573700
vn 0.486800 0.515900 0.704900
vn 0.651100 0.339200 0.678900
vn 0.689900 0.392200 0.608500
vn -0.564700 0.657700 0.498600
vn -0.656600 0.425000 0.623100
vn -0.201100 0.467400 0.860800
vn -0.180200 0.722500 0.667500
vn -0.511200 0.609900 0.605500
vn -0.594800 0.448000 0.667400
vn -0.856500 0.410700 -0.312700
vn -0.859600 0.405300 0.311200
vn -0.672400 0.638000 0.375100
vn -0.727500 0.662300 -0.179100
vn -0.378300 0.925100 -0.031500
vn -0.414700 0.824500 -0.385100
vn -0.548000 0.632500 -0.547400
vn -0.601400 0.410200 -0.685600
vn -0.331700 0.333100 -0.882600
vn 0.093100 0.245600 -0.964900
vn 0.093400 -0.094000 -0.991100
vn 0.056900 -0.756800 -0.651200
vn -0.242800 -0.716200 -0.654200
vn -0.292000 -0.053400 -0.954900
vn -0.525300 -0.563800 -0.637300
vn -0.650500 -0.053300 -0.757600
vn -0.106400 -0.986800 -0.122400
vn 0.005500 -0.995000 -0.099700
vn -0.616800 -0.727600 -0.300200
vn 0.425600 -0.652500 -0.626900
vn 0.762100 -0.274300 -0.586400
vn 0.770400 -0.574200 -0.277000
vn 0.152900 -0.980700 -0.121400
vn 0.806800 -0.575700 0.133000
vn 0.111400 -0.993700 0.007700
vn 0.153300 -0.974500 0.163600
vn 0.773600 -0.421500 0.473200
vn 0.692400 0.163300 0.702700
vn 0.409900 -0.551600 0.726400
vn -0.233300 0.918200 0.319900
vn -0.403400 0.891700 0.205200
vn 0.128400 0.829200 0.544000
vn 0.337400 0.939100 -0.064500
vn 0.673900 0.574600 -0.464300
vn 0.155200 0.861000 -0.484300
vn -0.391900 0.918900 0.044700
vn -0.192100 0.845900 -0.497600
vn -0.262600 0.961400 0.081600
vn -0.017000 0.997300 0.070400
vn -0.245800 0.896600 -0.368300
vn 0.746300 0.364800 0.556700
vn 0.955700 0.189700 0.225000
vn 0.647800 0.426600 0.631100
vn 0.789100 0.145300 -0.596800
vn 0.940400 0.175800 -0.291100
vn 0.776800 0.324500 -0.539600
vn 0.895600 0.352600 -0.271100
vn 0.882800 0.403400 -0.240500
vn 0.779700 0.371200 -0.504200
vn -0.194800 0.003400 0.980800
vn -0.680700 0.097300 0.726100
vn -0.660100 0.187800 0.727300
vn 0.467100 0.182500 0.865200
vn 0.524200 0.466100 0.712600
vn 0.461100 0.577200 0.674000
vn -0.962300 -0.055900 0.266100
vn -0.935700 -0.059200 -0.347800
vn -0.698000 0.077900 0.711900
vn -0.602500 0.401000 0.690000
vn -0.453400 0.594800 0.663700
vn 0.030200 0.485300 -0.873800
vn 0.535200 0.410600 -0.738200
vn 0.552200 0.282100 -0.784500
vn 0.523200 0.009600 -0.852100
vn -0.364600 0.583100 -0.726000
s 1
f 49/1/1 93/2/2 52/3/3
f 1/4/4 52/3/3 84/5/5
f 28/6/6 75/7/7 42/8/8
f 1/4/4 42/9/8 86/10/9
f 53/11/10 94/12/11 56/13/12
f 2/14/13 56/13/12 92/15/14
f 48/16/15 79/17/16 35/18/17
f 2/14/13 35/18/17 91/19/18
f 57/20/19 95/21/20 60/22/21
f 3/23/22 60/22/21 89/24/23
f 33/25/24 78/26/25 29/27/26
f 3/28/22 29/27/26 85/29/27
f 4/30/28 61/31/29 96/32/30
f 64/33/31 91/19/18 35/18/17
f 4/34/28 35/35/17 79/36/16
f 31/37/32 87/38/33 61/31/29
f 65/39/34 97/40/35 68/41/36
f 5/42/37 68/41/36 92/43/14
f 5/42/37 36/44/38 80/45/39
f 5/42/37 32/46/40 88/47/41
f 69/48/42 98/49/43 72/50/44
f 72/50/44 82/51/45 26/52/46
f 6/53/47 26/52/46 76/54/48
f 44/55/49 88/56/41 69/48/42
f 7/57/50 26/58/46 82/59/45
f 51/60/51 93/2/2 49/1/1
f 7/57/50 49/1/1 86/10/9
f 30/61/52 76/62/48 26/58/46
f 38/63/53 73/64/54 37/65/55
f 8/66/56 37/65/55 81/67/57
f 50/68/58 93/2/2 51/60/51
f 8/66/56 51/60/51 82/59/45
f 9/69/59 50/68/58 81/67/57
f 25/70/60 74/71/61 40/72/62
f 9/69/59 40/72/62 84/5/5
f 52/3/3 93/2/2 50/68/58
f 10/73/63 33/74/24 89/75/23
f 55/76/64 94/12/11 53/11/10
f 10/73/63 53/11/10 91/19/18
f 47/77/65 78/78/25 33/74/24
f 45/79/66 77/80/67 46/81/68
f 11/82/69 46/81/68 90/83/70
f 11/82/69 54/84/71 94/12/11
f 11/82/69 55/76/64 89/75/23
f 12/85/72 54/84/71 90/83/70
f 34/86/73 80/87/39 36/88/38
f 12/85/72 36/88/38 92/15/14
f 56/13/12 94/12/11 54/84/71
f 13/89/74 25/90/60 81/91/57
f 59/92/75 95/21/20 57/20/19
f 13/93/74 57/94/19 85/29/27
f 41/95/76 74/96/61 25/90/60
f 37/97/55 73/98/54 39/99/77
f 14/100/78 39/99/77 83/101/79
f 58/102/80 95/21/20 59/92/75
f 59/92/75 81/91/57 37/97/55
f 15/103/81 58/102/80 83/101/79
f 27/104/82 77/105/67 45/106/66
f 45/106/66 89/24/23 60/22/21
f 15/103/81 60/22/21 95/21/20
f 28/6/6 84/107/5 63/108/83
f 63/108/83 96/109/30 61/110/29
f 16/111/84 61/31/29 87/38/33
f 16/112/84 43/113/85 75/7/7
f 17/114/86 40/115/62 74/116/61
f 41/95/76 85/117/27 62/118/87
f 17/114/86 62/119/87 96/109/30
f 63/108/83 84/107/5 40/115/62
f 62/118/87 85/117/27 29/120/26
f 18/121/88 29/27/26 78/26/25
f 47/77/65 91/19/18 64/33/31
f 18/121/88 64/122/31 96/109/30
f 30/123/52 86/124/9 67/125/89
f 19/126/90 67/125/89 97/40/35
f 65/39/34 88/47/41 44/127/49
f 19/126/90 44/127/49 76/128/48
f 20/129/91 42/8/8 75/7/7
f 20/129/91 43/113/85 87/130/33
f 66/131/92 97/40/35 67/125/89
f 67/125/89 86/124/9 42/132/8
f 66/133/92 87/130/33 31/134/32
f 21/135/93 31/134/32 79/36/16
f 48/136/15 92/137/14 68/138/36
f 21/135/93 68/138/36 97/139/35
f 34/140/73 90/141/70 71/142/94
f 71/142/94 98/49/43 69/48/42
f 69/48/42 88/56/41 32/143/40
f 32/143/40 80/144/39 34/140/73
f 23/145/95 46/146/68 77/105/67
f 27/104/82 83/101/79 70/147/96
f 23/148/95 70/149/96 98/49/43
f 71/142/94 90/141/70 46/150/68
f 70/147/96 83/101/79 39/99/77
f 24/151/97 39/99/77 73/98/54
f 38/152/53 82/51/45 72/50/44
f 24/153/97 72/50/44 98/49/43
f 1/4/4 49/1/1 52/3/3
f 28/154/6 1/4/4 84/5/5
f 1/155/4 28/6/6 42/8/8
f 49/1/1 1/4/4 86/10/9
f 2/14/13 53/11/10 56/13/12
f 48/16/15 2/14/13 92/15/14
f 2/14/13 48/16/15 35/18/17
f 53/11/10 2/14/13 91/19/18
f 3/23/22 57/20/19 60/22/21
f 33/156/24 3/23/22 89/24/23
f 3/28/22 33/25/24 29/27/26
f 57/94/19 3/28/22 85/29/27
f 64/157/31 4/30/28 96/32/30
f 4/158/28 64/33/31 35/18/17
f 31/134/32 4/34/28 79/36/16
f 4/30/28 31/37/32 61/31/29
f 5/42/37 65/39/34 68/41/36
f 36/44/38 5/42/37 92/43/14
f 32/46/40 5/42/37 80/45/39
f 65/39/34 5/42/37 88/47/41
f 6/53/47 69/48/42 72/50/44
f 6/53/47 72/50/44 26/52/46
f 44/55/49 6/53/47 76/54/48
f 6/53/47 44/55/49 69/48/42
f 51/60/51 7/57/50 82/59/45
f 7/57/50 51/60/51 49/1/1
f 30/61/52 7/57/50 86/10/9
f 7/57/50 30/61/52 26/58/46
f 8/66/56 38/63/53 37/65/55
f 50/68/58 8/66/56 81/67/57
f 8/66/56 50/68/58 51/60/51
f 38/63/53 8/66/56 82/59/45
f 25/70/60 9/69/59 81/67/57
f 9/69/59 25/70/60 40/72/62
f 52/3/3 9/69/59 84/5/5
f 9/69/59 52/3/3 50/68/58
f 55/76/64 10/73/63 89/75/23
f 10/73/63 55/76/64 53/11/10
f 47/77/65 10/73/63 91/19/18
f 10/73/63 47/77/65 33/74/24
f 11/82/69 45/79/66 46/81/68
f 54/84/71 11/82/69 90/83/70
f 55/76/64 11/82/69 94/12/11
f 45/79/66 11/82/69 89/75/23
f 34/86/73 12/85/72 90/83/70
f 12/85/72 34/86/73 36/88/38
f 56/13/12 12/85/72 92/15/14
f 12/85/72 56/13/12 54/84/71
f 59/92/75 13/89/74 81/91/57
f 13/89/74 59/92/75 57/20/19
f 41/159/76 13/93/74 85/29/27
f 13/89/74 41/95/76 25/90/60
f 14/100/78 37/97/55 39/99/77
f 58/102/80 14/100/78 83/101/79
f 14/100/78 58/102/80 59/92/75
f 14/100/78 59/92/75 37/97/55
f 27/104/82 15/103/81 83/101/79
f 15/103/81 27/104/82 45/106/66
f 15/103/81 45/106/66 60/22/21
f 58/102/80 15/103/81 95/21/20
f 16/112/84 28/6/6 63/108/83
f 16/112/84 63/108/83 61/110/29
f 43/160/85 16/111/84 87/38/33
f 28/6/6 16/112/84 75/7/7
f 41/159/76 17/114/86 74/116/61
f 17/161/86 41/95/76 62/118/87
f 63/108/83 17/114/86 96/109/30
f 17/114/86 63/108/83 40/115/62
f 18/162/88 62/118/87 29/120/26
f 47/163/65 18/121/88 78/26/25
f 18/164/88 47/77/65 64/33/31
f 62/119/87 18/121/88 96/109/30
f 19/126/90 30/123/52 67/125/89
f 65/39/34 19/126/90 97/40/35
f 19/126/90 65/39/34 44/127/49
f 30/123/52 19/126/90 76/128/48
f 43/113/85 20/129/91 75/7/7
f 66/133/92 20/129/91 87/130/33
f 20/165/91 66/131/92 67/125/89
f 20/165/91 67/125/89 42/132/8
f 21/135/93 66/133/92 31/134/32
f 48/136/15 21/135/93 79/36/16
f 21/135/93 48/136/15 68/138/36
f 66/133/92 21/135/93 97/139/35
f 22/166/98 34/140/73 71/142/94
f 22/166/98 71/142/94 69/48/42
f 22/166/98 69/48/42 32/143/40
f 22/166/98 32/143/40 34/140/73
f 27/104/82 23/145/95 77/105/67
f 23/145/95 27/104/82 70/147/96
f 71/142/94 23/148/95 98/49/43
f 23/148/95 71/142/94 46/150/68
f 24/151/97 70/147/96 39/99/77
f 38/167/53 24/151/97 73/98/54
f 24/153/97 38/152/53 72/50/44
f 70/149/96 24/153/97 98/49/43
